<?xml version="1.0" encoding="utf-8"?>
<!-- Generator: Adobe Illustrator 26.1.0, SVG Export Plug-In . SVG Version: 6.00 Build 0)  -->
<svg version="1.1" id="Layer_1" xmlns="http://www.w3.org/2000/svg" xmlns:xlink="http://www.w3.org/1999/xlink" x="0px" y="0px"
	 viewBox="0 0 1200 240" style="enable-background:new 0 0 1200 240;" xml:space="preserve">
<style type="text/css">
	.st0{fill:#12284C;}
	.st1{fill:#FFFFFF;}
	.st2{fill:#F5A800;}
	.st3{fill:#A65A2A;}
	.st4{fill:#0082CA;}
</style>
<g>
	<g>
		<g>
			<path class="st0" d="M30,226.8v-19.2h4v7.8h8v-7.8h4v19.2h-4V218h-8v8.8H30z"/>
			<path class="st0" d="M50.8,226.8v-19.2h12.3v2.7h-8.3v5.4h6.9v2.7h-6.9v5.8h8.9v2.7H50.8z"/>
			<path class="st0" d="M64.7,226.8l7.5-19.2h4l7.5,19.2h-4.1l-2-5.1h-8l-2,5.1H64.7z M70.6,219.1h6l-3-7.7L70.6,219.1z"/>
			<path class="st0" d="M91.4,226.8l-7.1-19.2h4.3l5.5,14.9l5.3-14.9h2.9l-6.9,19.2H91.4z"/>
			<path class="st0" d="M109.6,226.8v-8.1l-6.5-11.2h4.4l4.7,8.1l4.9-8.1h3.2l-6.7,11.2v8.1H109.6z"/>
			<path class="st0" d="M133.4,226.8v-19.2h12.3v2.7h-8.3v5.4h6.9v2.7h-6.9v5.8h8.9v2.7H133.4z"/>
			<path class="st0" d="M149.4,226.8v-19.2h3.5l8.9,13.1v-13.1h3.2v19.2h-3.6l-8.8-13.1v13.1H149.4z"/>
			<path class="st0" d="M185.2,226.3c-1.7,0.4-3,0.7-3.8,0.8c-0.8,0.1-1.6,0.1-2.5,0.1c-3.6,0-6.2-1-7.9-2.9
				c-1.6-1.9-2.5-4.3-2.5-7.3c0-1.9,0.4-3.6,1.1-5.2c0.7-1.5,1.8-2.7,3.3-3.6c1.5-0.9,3.4-1.3,5.9-1.3c2.1,0,4.2,0.2,6.3,0.7v3.1
				c-1.7-0.6-3-1-3.8-1.1c-0.8-0.1-1.5-0.2-2.2-0.2c-2.3,0-3.9,0.7-4.9,2.2c-1,1.5-1.5,3.2-1.5,5.3c0,2.3,0.6,4.1,1.8,5.4
				c1.2,1.3,2.8,2,4.9,2c0.5,0,1-0.1,1.6-0.2V218h4V226.3z"/>
			<path class="st0" d="M189.7,226.8v-19.2h4v19.2H189.7z"/>
			<path class="st0" d="M198.5,226.8v-19.2h3.5l8.9,13.1v-13.1h3.2v19.2h-3.6l-8.8-13.1v13.1H198.5z"/>
			<path class="st0" d="M219,226.8v-19.2h12.3v2.7H223v5.4h6.9v2.7H223v5.8h8.9v2.7H219z"/>
			<path class="st0" d="M235,226.8v-19.2h12.3v2.7H239v5.4h6.9v2.7H239v5.8h8.9v2.7H235z"/>
			<path class="st0" d="M251,226.8v-19.2h7.2c1.5,0,2.6,0.2,3.4,0.5c0.8,0.4,1.4,0.9,1.8,1.7c0.4,0.8,0.7,1.6,0.7,2.5
				c0,1.1-0.3,2.2-1,3.2c-0.7,1-1.6,1.8-2.8,2.3l6.3,9h-4.9l-4.8-7.9h-2.2v7.9H251z M254.8,216.3h0.9c1.7,0,2.8-0.4,3.4-1.1
				c0.6-0.7,0.9-1.5,0.9-2.4c0-0.8-0.3-1.4-0.8-1.9c-0.5-0.5-1.6-0.7-3.1-0.7h-1.4V216.3z"/>
			<path class="st0" d="M269.3,226.8v-19.2h4v19.2H269.3z"/>
			<path class="st0" d="M278.2,226.8v-19.2h3.5l8.9,13.1v-13.1h3.2v19.2h-3.6l-8.8-13.1v13.1H278.2z"/>
			<path class="st0" d="M314,226.3c-1.7,0.4-3,0.7-3.8,0.8c-0.8,0.1-1.6,0.1-2.5,0.1c-3.6,0-6.2-1-7.9-2.9c-1.6-1.9-2.5-4.3-2.5-7.3
				c0-1.9,0.4-3.6,1.1-5.2c0.7-1.5,1.8-2.7,3.3-3.6c1.5-0.9,3.4-1.3,5.9-1.3c2.1,0,4.2,0.2,6.3,0.7v3.1c-1.7-0.6-3-1-3.8-1.1
				c-0.8-0.1-1.5-0.2-2.2-0.2c-2.3,0-3.9,0.7-4.9,2.2c-1,1.5-1.5,3.2-1.5,5.3c0,2.3,0.6,4.1,1.8,5.4c1.2,1.3,2.8,2,4.9,2
				c0.5,0,1-0.1,1.6-0.2V218h4V226.3z"/>
			<path class="st0" d="M328.1,226.8v-19.2h4v19.2H328.1z"/>
			<path class="st0" d="M336.9,226.8v-19.2h3.5l8.9,13.1v-13.1h3.2v19.2H349l-8.8-13.1v13.1H336.9z"/>
			<path class="st0" d="M357.4,226.8v-19.2h8.3c2.2,0,3.9,0.4,5.2,1.1c1.2,0.7,2.2,1.8,3,3.1c0.7,1.4,1.1,3.1,1.1,5
				c0,1.9-0.3,3.6-1,5.1c-0.7,1.5-1.7,2.7-3,3.6c-1.3,0.9-3.2,1.3-5.5,1.3H357.4z M361.4,224.1h3c1.6,0,2.8-0.2,3.6-0.7
				c0.8-0.5,1.5-1.3,2-2.5c0.5-1.2,0.7-2.4,0.7-3.9c0-1.4-0.2-2.6-0.7-3.6c-0.5-1-1.1-1.8-1.9-2.4c-0.8-0.5-2.2-0.8-4.2-0.8h-2.4
				V224.1z"/>
			<path class="st0" d="M378.3,207.5h4v11.8c0,2.1,0.4,3.6,1.1,4.2c0.7,0.7,1.7,1,2.8,1c1.1,0,2-0.3,2.7-1c0.7-0.7,1-2,1-4v-12.1
				h3.5v11.8c0,2.2-0.3,3.8-0.8,4.8c-0.6,1-1.4,1.7-2.4,2.3c-1.1,0.6-2.4,0.8-4,0.8c-1.6,0-3-0.3-4.1-0.8c-1.1-0.5-2.1-1.3-2.7-2.3
				c-0.7-1-1-2.6-1-4.9V207.5z"/>
			<path class="st0" d="M397,226.6v-3.3c1.5,0.6,2.6,1,3.4,1.1c0.7,0.1,1.4,0.2,2,0.2c1.1,0,2-0.3,2.5-0.8c0.6-0.5,0.8-1.1,0.8-1.8
				c0-0.5-0.2-1-0.5-1.5c-0.3-0.4-1.1-1-2.3-1.7l-1.3-0.7c-1.9-1-3.1-2-3.8-2.9c-0.7-0.9-1-1.9-1-3c0-1.5,0.6-2.7,1.7-3.7
				c1.1-1,2.7-1.5,4.8-1.5c1.6,0,3.3,0.2,5.2,0.7v3.1c-2-0.7-3.6-1.1-4.7-1.1c-1,0-1.7,0.2-2.2,0.6c-0.5,0.4-0.8,0.9-0.8,1.5
				c0,0.5,0.2,0.9,0.5,1.3c0.3,0.4,1.1,0.9,2.3,1.6l1.4,0.8c2.1,1.2,3.5,2.2,4.1,3.1c0.6,0.9,0.9,1.9,0.9,3c0,1.6-0.6,2.9-1.8,4
				c-1.2,1.1-3.1,1.7-5.7,1.7C400.9,227.3,399.1,227.1,397,226.6z"/>
			<path class="st0" d="M418.1,226.8v-16.6h-6.9v-2.7H429v2.7h-6.9v16.6H418.1z"/>
			<path class="st0" d="M431.7,226.8v-19.2h7.2c1.5,0,2.6,0.2,3.4,0.5c0.8,0.4,1.4,0.9,1.8,1.7c0.4,0.8,0.7,1.6,0.7,2.5
				c0,1.1-0.3,2.2-1,3.2c-0.7,1-1.6,1.8-2.8,2.3l6.3,9h-4.9l-4.8-7.9h-2.2v7.9H431.7z M435.5,216.3h0.9c1.7,0,2.8-0.4,3.4-1.1
				c0.6-0.7,0.9-1.5,0.9-2.4c0-0.8-0.3-1.4-0.8-1.9c-0.5-0.5-1.6-0.7-3.1-0.7h-1.4V216.3z"/>
			<path class="st0" d="M450.1,226.8v-19.2h4v19.2H450.1z"/>
			<path class="st0" d="M458.9,226.8v-19.2h12.3v2.7h-8.3v5.4h6.9v2.7h-6.9v5.8h8.9v2.7H458.9z"/>
			<path class="st0" d="M473.8,226.6v-3.3c1.5,0.6,2.6,1,3.4,1.1c0.7,0.1,1.4,0.2,2.1,0.2c1.1,0,2-0.3,2.5-0.8
				c0.6-0.5,0.8-1.1,0.8-1.8c0-0.5-0.2-1-0.5-1.5c-0.3-0.4-1.1-1-2.3-1.7l-1.3-0.7c-1.9-1-3.1-2-3.8-2.9c-0.7-0.9-1-1.9-1-3
				c0-1.5,0.6-2.7,1.7-3.7c1.1-1,2.7-1.5,4.8-1.5c1.5,0,3.3,0.2,5.2,0.7v3.1c-2-0.7-3.6-1.1-4.7-1.1c-1,0-1.7,0.2-2.2,0.6
				c-0.5,0.4-0.8,0.9-0.8,1.5c0,0.5,0.2,0.9,0.5,1.3c0.3,0.4,1.1,0.9,2.3,1.6l1.4,0.8c2.1,1.2,3.5,2.2,4.1,3.1
				c0.6,0.9,0.9,1.9,0.9,3c0,1.6-0.6,2.9-1.8,4c-1.2,1.1-3.1,1.7-5.7,1.7C477.7,227.3,475.9,227.1,473.8,226.6z"/>
			<path class="st0" d="M515.6,226.8h-4.5l-0.8-1c-1.5,1-3.2,1.5-5,1.5c-1.3,0-2.6-0.3-3.7-0.8c-1.1-0.5-1.9-1.3-2.6-2.2
				c-0.6-1-0.9-2-0.9-3.2c0-1.2,0.3-2.2,1-3.3c0.7-1,1.9-1.9,3.8-2.7c-0.9-1.6-1.4-2.9-1.4-3.9c0-0.7,0.2-1.4,0.7-2.1
				c0.5-0.7,1.1-1.2,1.9-1.5c0.8-0.4,1.7-0.5,2.7-0.5c1.4,0,2.6,0.4,3.6,1.2c1,0.8,1.4,1.7,1.4,2.9c0,0.9-0.3,1.8-1,2.6
				c-0.7,0.8-1.7,1.5-3.2,2.2c0.4,0.8,1,1.8,1.7,2.8c0.7,1,1.4,2,2.2,3c0.6-0.8,0.9-1.7,1.1-2.5c0.1-0.9,0.2-1.8,0.2-2.7v-0.3h3.2
				c0,2.8-1,5.3-3.1,7.5C513.8,224.7,514.7,225.8,515.6,226.8z M504.2,217.2c-1.6,0.7-2.4,1.8-2.4,3.3c0,1.1,0.4,2.1,1.1,3
				c0.7,0.9,1.7,1.4,3,1.4c1,0,1.9-0.3,2.8-0.9c-1-1.3-1.8-2.4-2.3-3.2c-0.5-0.8-1.1-1.7-1.7-2.8L504.2,217.2z M506.4,214.1
				c1.5-0.8,2.2-1.8,2.2-2.9c0-0.5-0.2-0.9-0.5-1.2c-0.3-0.3-0.7-0.5-1.3-0.5c-0.5,0-1,0.2-1.3,0.5c-0.3,0.3-0.4,0.7-0.4,1.2
				C505.2,211.9,505.6,212.9,506.4,214.1z"/>
			<path class="st0" d="M528,226.6v-3.3c1.5,0.6,2.6,1,3.4,1.1c0.7,0.1,1.4,0.2,2,0.2c1.1,0,2-0.3,2.5-0.8c0.6-0.5,0.8-1.1,0.8-1.8
				c0-0.5-0.2-1-0.5-1.5c-0.3-0.4-1.1-1-2.3-1.7l-1.3-0.7c-1.9-1-3.1-2-3.8-2.9c-0.7-0.9-1-1.9-1-3c0-1.5,0.6-2.7,1.7-3.7
				c1.1-1,2.7-1.5,4.8-1.5c1.6,0,3.3,0.2,5.2,0.7v3.1c-2-0.7-3.6-1.1-4.7-1.1c-1,0-1.7,0.2-2.2,0.6c-0.5,0.4-0.8,0.9-0.8,1.5
				c0,0.5,0.2,0.9,0.5,1.3c0.3,0.4,1.1,0.9,2.3,1.6l1.4,0.8c2.1,1.2,3.5,2.2,4.1,3.1c0.6,0.9,0.9,1.9,0.9,3c0,1.6-0.6,2.9-1.8,4
				c-1.2,1.1-3.1,1.7-5.7,1.7C531.9,227.3,530,227.1,528,226.6z"/>
			<path class="st0" d="M544.3,226.8v-19.2h4v7.8h8v-7.8h4v19.2h-4V218h-8v8.8H544.3z"/>
			<path class="st0" d="M565.1,226.8v-19.2h4v19.2H565.1z"/>
			<path class="st0" d="M573.9,226.8v-19.2h6.6c1.9,0,3.3,0.2,4.1,0.6c0.8,0.4,1.4,1,1.8,1.7c0.4,0.7,0.6,1.7,0.6,2.8
				c0,2.1-0.7,3.8-2,4.9c-1.4,1.1-3.2,1.7-5.5,1.7h-1.6v7.5H573.9z M577.8,216.6h0.8c1.5,0,2.6-0.4,3.2-1.1c0.7-0.7,1-1.5,1-2.5
				c0-0.5-0.1-1-0.3-1.5c-0.2-0.4-0.6-0.8-1-1c-0.5-0.3-1.2-0.4-2.2-0.4h-1.5V216.6z"/>
			<path class="st0" d="M590.2,226.8v-19.2h6.5c1.6,0,2.7,0.2,3.5,0.5c0.8,0.4,1.3,0.9,1.8,1.6c0.4,0.7,0.6,1.4,0.6,2.2
				c0,1-0.3,1.9-1,2.8c-0.7,0.9-1.9,1.6-3.6,2.1c1.4,0.3,2.4,0.8,3.2,1.3c0.7,0.5,1.3,1.1,1.7,1.8c0.4,0.7,0.6,1.4,0.6,2.2
				c0,0.9-0.2,1.7-0.7,2.4c-0.4,0.8-1.1,1.3-1.8,1.7c-0.8,0.4-2,0.6-3.6,0.6H590.2z M594.1,215.5h0.9c1.2,0,2.1-0.3,2.7-0.9
				c0.6-0.6,0.9-1.3,0.9-2.2c0-0.5-0.1-0.9-0.3-1.2c-0.2-0.3-0.5-0.6-0.9-0.8c-0.4-0.2-1.3-0.3-2.6-0.3h-0.7V215.5z M594.1,224.1
				h0.8c1.4,0,2.3-0.1,2.8-0.3c0.5-0.2,0.9-0.5,1.1-0.9c0.3-0.4,0.4-0.9,0.4-1.4c0-1-0.4-1.8-1.3-2.4c-0.8-0.7-1.9-1-3.2-1h-0.7
				V224.1z"/>
			<path class="st0" d="M606.8,207.5h4v11.8c0,2.1,0.4,3.6,1.1,4.2c0.7,0.7,1.7,1,2.8,1c1.1,0,2-0.3,2.7-1c0.7-0.7,1-2,1-4v-12.1
				h3.5v11.8c0,2.2-0.3,3.8-0.8,4.8c-0.6,1-1.4,1.7-2.4,2.3c-1.1,0.6-2.4,0.8-4,0.8c-1.6,0-3-0.3-4.1-0.8c-1.1-0.5-2.1-1.3-2.7-2.3
				c-0.7-1-1-2.6-1-4.9V207.5z"/>
			<path class="st0" d="M626.6,226.8v-19.2h4v19.2H626.6z"/>
			<path class="st0" d="M635.4,226.8v-19.2h4v16.5h8.6v2.7H635.4z"/>
			<path class="st0" d="M650.9,226.8v-19.2h8.3c2.2,0,3.9,0.4,5.2,1.1c1.2,0.7,2.2,1.8,3,3.1c0.7,1.4,1.1,3.1,1.1,5
				c0,1.9-0.4,3.6-1,5.1c-0.7,1.5-1.7,2.7-3,3.6c-1.3,0.9-3.2,1.3-5.5,1.3H650.9z M654.9,224.1h3c1.6,0,2.8-0.2,3.6-0.7
				c0.8-0.5,1.5-1.3,2-2.5c0.5-1.2,0.7-2.4,0.7-3.9c0-1.4-0.2-2.6-0.7-3.6c-0.5-1-1.1-1.8-1.9-2.4c-0.8-0.5-2.2-0.8-4.2-0.8h-2.4
				V224.1z"/>
			<path class="st0" d="M672,226.8v-19.2h4v19.2H672z"/>
			<path class="st0" d="M680.9,226.8v-19.2h3.5l8.9,13.1v-13.1h3.2v19.2h-3.6l-8.8-13.1v13.1H680.9z"/>
			<path class="st0" d="M716.7,226.3c-1.7,0.4-3,0.7-3.8,0.8c-0.8,0.1-1.6,0.1-2.5,0.1c-3.6,0-6.2-1-7.9-2.9
				c-1.6-1.9-2.5-4.3-2.5-7.3c0-1.9,0.4-3.6,1.1-5.2c0.7-1.5,1.8-2.7,3.3-3.6c1.5-0.9,3.4-1.3,5.9-1.3c2.1,0,4.2,0.2,6.3,0.7v3.1
				c-1.7-0.6-3-1-3.8-1.1c-0.8-0.1-1.5-0.2-2.2-0.2c-2.3,0-3.9,0.7-4.9,2.2c-1,1.5-1.5,3.2-1.5,5.3c0,2.3,0.6,4.1,1.8,5.4
				c1.2,1.3,2.8,2,4.9,2c0.5,0,1-0.1,1.6-0.2V218h4V226.3z"/>
			<path class="st0" d="M745.2,226c-0.8,0.4-1.6,0.6-2.2,0.8c-0.6,0.1-1.3,0.2-2.1,0.3c-0.8,0.1-1.6,0.1-2.3,0.1
				c-3.4,0-5.9-0.9-7.5-2.8c-1.7-1.9-2.5-4.3-2.5-7.3c0-3,0.8-5.4,2.5-7.3c1.7-1.9,4.2-2.8,7.8-2.8c2.1,0,4.2,0.2,6.2,0.7v3.1
				c-1-0.3-1.8-0.6-2.4-0.8c-0.6-0.2-1.2-0.3-1.8-0.4c-0.6-0.1-1.1-0.1-1.7-0.1c-2.2,0-3.8,0.7-4.8,2.1c-1,1.4-1.5,3.2-1.5,5.3
				c0,2.2,0.6,4,1.7,5.3c1.1,1.4,2.8,2,5.1,2c1.9,0,3.8-0.5,5.7-1.4V226z"/>
			<path class="st0" d="M757.2,227.3c-2,0-3.7-0.4-5.2-1.2c-1.5-0.8-2.6-2-3.4-3.6c-0.8-1.6-1.2-3.3-1.2-5.3c0-2,0.4-3.7,1.2-5.3
				c0.8-1.6,1.9-2.8,3.4-3.6c1.5-0.8,3.2-1.2,5.2-1.2c2,0,3.7,0.4,5.2,1.2c1.5,0.8,2.6,2,3.4,3.6c0.8,1.6,1.2,3.3,1.2,5.3
				c0,2-0.4,3.7-1.2,5.3c-0.8,1.6-1.9,2.7-3.4,3.6C761,226.9,759.2,227.3,757.2,227.3z M757.2,224.6c1.9,0,3.2-0.8,4.1-2.3
				c0.9-1.5,1.4-3.2,1.4-5.2c0-2-0.5-3.7-1.4-5.2c-0.9-1.5-2.3-2.3-4.1-2.3c-1.9,0-3.2,0.8-4.2,2.3c-0.9,1.5-1.4,3.2-1.4,5.2
				c0,1.9,0.5,3.7,1.4,5.2C754,223.9,755.4,224.6,757.2,224.6z"/>
			<path class="st0" d="M769.4,226.8v-4.2h4.2v4.2H769.4z"/>
			<path class="st0" d="M785.3,226.8v-17.6h3.5v8.6l6.5-8.6h3l-5.9,7.9l7.4,9.7h-4.5l-6.5-8.7v8.7H785.3z"/>
			<path class="st0" d="M802.5,226.8V223h3.8v3.8H802.5z"/>
			<path class="st0" d="M808.2,226.6v-3c1.4,0.6,2.4,0.9,3.1,1c0.7,0.1,1.3,0.2,1.9,0.2c1,0,1.8-0.2,2.3-0.7c0.5-0.5,0.8-1,0.8-1.7
				c0-0.5-0.1-0.9-0.4-1.3c-0.3-0.4-1-0.9-2.1-1.5l-1.2-0.7c-1.7-0.9-2.9-1.8-3.5-2.6c-0.6-0.8-0.9-1.7-0.9-2.8
				c0-1.3,0.5-2.5,1.5-3.4c1-0.9,2.5-1.4,4.4-1.4c1.4,0,3,0.2,4.8,0.6v2.8c-1.8-0.7-3.3-1-4.3-1c-0.9,0-1.6,0.2-2,0.6
				c-0.5,0.4-0.7,0.9-0.7,1.4c0,0.4,0.1,0.8,0.4,1.2c0.3,0.4,1,0.8,2.1,1.5l1.3,0.7c1.9,1.1,3.2,2,3.7,2.8c0.5,0.8,0.8,1.7,0.8,2.7
				c0,1.4-0.5,2.7-1.7,3.7c-1.1,1-2.9,1.5-5.3,1.5C811.7,227.2,810.1,227,808.2,226.6z"/>
			<path class="st0" d="M823,226.8V223h3.8v3.8H823z"/>
			<path class="st0" d="M844.3,226.1c-0.8,0.3-1.4,0.6-2,0.7c-0.6,0.1-1.2,0.2-1.9,0.3c-0.7,0.1-1.4,0.1-2.2,0.1
				c-3.1,0-5.4-0.9-6.9-2.6c-1.5-1.7-2.3-4-2.3-6.7c0-2.7,0.8-4.9,2.3-6.7c1.5-1.7,3.9-2.6,7.1-2.6c1.9,0,3.8,0.2,5.7,0.7v2.9
				c-0.9-0.3-1.7-0.6-2.2-0.7c-0.6-0.1-1.1-0.3-1.7-0.3c-0.5-0.1-1-0.1-1.6-0.1c-2,0-3.5,0.7-4.4,2c-0.9,1.3-1.4,2.9-1.4,4.8
				c0,2,0.5,3.7,1.6,4.9c1,1.2,2.6,1.9,4.6,1.9c1.7,0,3.4-0.4,5.2-1.3V226.1z"/>
			<path class="st0" d="M860.7,207.8v2.3c-0.7,0.8-1.3,1.7-1.7,2.6c-0.4,0.9-0.7,1.9-0.9,3c-0.2,1.1-0.3,2.3-0.3,3.5
				c0,1.2,0.1,2.4,0.3,3.5c0.2,1.1,0.5,2.1,0.9,3c0.4,0.9,1,1.8,1.7,2.6v2.3c-1-0.5-1.7-1-2.1-1.4c-0.4-0.4-0.8-0.8-1.2-1.3
				c-1-1.3-1.8-2.7-2.3-4.2c-0.5-1.5-0.8-3-0.8-4.5c0-1.9,0.4-3.7,1.3-5.6c0.6-1.3,1.3-2.5,2.2-3.5c0.3-0.4,0.7-0.7,1.1-1.1
				C859.2,208.7,859.8,208.3,860.7,207.8z"/>
			<path class="st0" d="M864,226.8v-17.6h6.1c1.8,0,3,0.2,3.7,0.6c0.7,0.4,1.3,0.9,1.6,1.6c0.4,0.7,0.5,1.5,0.5,2.5
				c0,2-0.6,3.5-1.9,4.5c-1.2,1-2.9,1.6-5,1.6h-1.5v6.9H864z M867.6,217.5h0.7c1.4,0,2.3-0.3,3-1c0.6-0.6,0.9-1.4,0.9-2.3
				c0-0.5-0.1-0.9-0.3-1.3c-0.2-0.4-0.5-0.7-0.9-0.9c-0.4-0.2-1.1-0.4-2-0.4h-1.4V217.5z"/>
			<path class="st0" d="M887,226.8v-2.5c-0.6,1-1.3,1.7-2.1,2.1c-0.8,0.4-1.6,0.6-2.4,0.6c-1,0-1.9-0.3-2.7-1
				c-0.7-0.7-1.1-1.7-1.1-3.1v-9.3h3.5v8.4c0,0.7,0.1,1.2,0.2,1.5c0.1,0.3,0.3,0.4,0.5,0.6c0.2,0.1,0.5,0.2,0.8,0.2
				c0.5,0,1-0.2,1.5-0.5c0.5-0.3,1.1-1,1.7-1.9v-8.2h3.5v13.1H887z"/>
			<path class="st0" d="M895,226.8V208h3.5v8.2c0.4-0.9,1-1.6,1.7-2.1c0.7-0.5,1.5-0.7,2.5-0.7c1.6,0,2.8,0.6,3.7,1.8
				c0.9,1.2,1.3,2.8,1.3,4.7c0,2.1-0.5,3.8-1.5,5.1c-1,1.4-2.3,2.1-4.1,2.1c-0.5,0-0.9-0.1-1.4-0.2c-0.4-0.1-0.8-0.3-1.2-0.5
				c-0.4-0.2-0.8-0.5-1.2-1l-0.7,1.3H895z M898.5,223.4c0.5,0.6,0.9,0.9,1.4,1.1c0.4,0.2,0.9,0.3,1.3,0.3c0.9,0,1.6-0.5,2.1-1.4
				c0.5-0.9,0.7-2,0.7-3.2c0-1.2-0.2-2.2-0.7-2.9c-0.4-0.7-1.1-1.1-1.9-1.1c-0.5,0-1,0.2-1.5,0.5c-0.5,0.4-1,0.9-1.4,1.5V223.4z"/>
			<path class="st0" d="M911.1,226.8V208h3.5v18.8H911.1z"/>
			<path class="st0" d="M919.1,211.5v-2.9h3.5v2.9H919.1z M919.1,226.8v-13.1h3.5v13.1H919.1z"/>
			<path class="st0" d="M936.6,226.5c-1.4,0.4-2.8,0.6-4,0.6c-2.2,0-3.9-0.7-5-2c-1.1-1.3-1.7-2.9-1.7-4.9c0-2,0.6-3.7,1.8-4.9
				c1.2-1.3,2.9-1.9,5.2-1.9c1,0,2.3,0.2,3.6,0.5v2.5c-1.4-0.5-2.5-0.7-3.4-0.7c-1.2,0-2.1,0.5-2.6,1.4c-0.6,0.9-0.8,1.9-0.8,3.1
				c0,0.9,0.2,1.7,0.5,2.4c0.3,0.7,0.8,1.3,1.3,1.6c0.6,0.3,1.2,0.5,1.9,0.5c1,0,2.1-0.2,3.2-0.7V226.5z"/>
			<path class="st0" d="M938.9,230.5v-2.3c0.7-0.8,1.3-1.6,1.7-2.5c0.4-0.9,0.7-1.9,0.9-3c0.2-1.1,0.3-2.3,0.3-3.5
				c0-1.3-0.1-2.4-0.3-3.5c-0.2-1.1-0.5-2.1-0.9-3c-0.4-0.9-1-1.7-1.7-2.6v-2.3c1.4,0.7,2.5,1.7,3.5,2.9c0.9,1.2,1.7,2.5,2.2,4
				c0.5,1.5,0.8,2.9,0.8,4.4c0,1.4-0.3,2.9-0.7,4.3c-0.5,1.4-1.2,2.8-2.1,4C941.6,228.6,940.4,229.6,938.9,230.5z"/>
		</g>
		<path class="st0" d="M934.8,157c0.1,0,0.4-0.3,1-1c0.7-0.8,1.1-1.2,1.4-1.4c2.1,1.5,3.4,2.3,3.7,2.4c0.4-0.5,0.9-1.1,1.3-1.6
			c0.6-0.7,0.9-1.2,0.9-1.5l-3.6-2c-1.9,1.3-2.8,2-2.6,2c-0.1,0-0.7-0.3-1.8-1c-1.1-0.7-1.7-1-1.8-1c0,0-0.9,0.9-2.5,2.8
			c0.6,0.5,1.4,1,2.2,1.4C934,156.7,934.6,157,934.8,157z M939.5,150.1l-3.1-2.2c-1.5,1-2.5,1.8-2.8,2.5c2,1.4,3,2.1,3.1,2.1
			C936.7,152.5,937.6,151.7,939.5,150.1z M73.2,158.4c0-0.1-0.1-0.2-0.3-0.3c-0.7-0.1-2.2,0.4-4.3,1.4c-0.9,0.4-1.8,1.2-2.6,2.3
			c-0.7,1-1.3,2-1.6,2.9c-0.3,0.7-0.5,1.2-0.6,1.6h-5.1v-0.1h-3.8v0.1h-0.2c-0.9,0-1.3-0.2-1.4-0.6c-0.9-5-1.6-8.7-1.9-11.2
			c-1.4,2.3-2,3.5-2,3.4c0,0.1,0.1,0.3,0.2,0.5c0.1,0.3,0.2,0.5,0.2,0.6c-0.9,0.6-1.9,1.2-2.9,1.8c-1.6,0.9-2.4,1.7-2.7,2.4
			c-1,2.9-1.4,4.3-1.4,4.1v0.5l5.8,1.1c0.5-0.1,1-0.5,1.4-1.5c0.4-0.9,0.8-1.4,1.2-1.6c0.3,1.3,0.5,2.3,0.7,2.9
			c0.1,0.3,0.3,0.6,0.8,1c0.2,0.2,0.3,0.2,0.5,0.2h10.3c0.3-0.3,0.6-0.9,1-1.7c0.3-0.7,0.7-1.2,1.2-1.3l7.2,2.6c1.3-2,2-3.1,2.1-3.3
			c0.2-0.4,0.3-0.7,0.3-1c0-0.4,0-0.8-0.1-1.1C74.2,161.7,73.6,159.7,73.2,158.4z M51,164.9h-2.1c-0.4,0-1.3-0.2-2.9-0.7
			c0.6-0.3,1.3-0.6,2-0.9c0.9-0.5,1.4-1.2,1.7-2c0.1-0.3,0.3-0.5,0.7-0.7c0.4,1.9,0.7,3.1,0.7,3.6V164.9z M67.3,163
			c0-0.1,0.1-0.2,0.4-0.4c0.3-0.2,0.6-0.4,1.1-0.5c0.4-0.2,0.8-0.2,1-0.2c0.5,0,0.9,0.4,1.2,1.1c0.1,0.2,0.2,0.7,0.5,1.8L67.3,163z
			 M45.8,153.1c1.6,1,2.5,1.5,2.8,1.5c0.1,0,0.4-0.3,0.9-0.9c0.8-0.8,1.2-1.2,1.2-1.3l-2.9-1.7c-1.2,1-1.8,1.5-1.7,1.5
			c-0.3,0-1.1-0.5-2.5-1.5c-0.9,1-1.5,1.8-1.9,2.3c1.5,1,2.3,1.5,2.6,1.5C44.4,154.5,44.9,154,45.8,153.1z M153.1,151
			c-1,1.3-1.8,2.8-2.5,4.4c0.9,0.7,1.3,1,1.3,1c0.7,3.3,1.2,5.7,1.4,7.3c0.2,1.1,0.2,1.7,0.2,1.8c0,0.3-0.1,0.5-0.2,0.8h-14.5
			c-0.4,0-1-0.3-1.7-0.8c-0.7-0.5-1-1-1.1-1.4c-0.2-0.8-0.2-1.1-0.2-1c0-0.1,0.1-0.4,0.3-1.1c0.2-0.6,0.3-0.9,0.3-1v-0.5
			c-0.1,0-0.1,0-0.2-0.1c-0.7,0.3-1.2,1.1-1.6,2.5c-0.3,1.1-0.5,2-0.5,2.8c0,2.1,0.9,3.4,2.6,4.1c0.8,0.3,1.3,0.4,1.6,0.4h16.1
			c0.3,0,0.5-0.1,0.7-0.4c0.1-0.2,0.2-0.9,0.5-2.1c0.2-1,0.3-1.7,0.3-2.2l-0.7-5.9c0-0.4,0.1-0.8,0.5-1.1c0.3-0.4,0.6-0.8,0.9-1.2
			c0.8-1,1.2-1.6,1.3-1.8c-0.9-0.5-1.8-1.1-2.8-1.6C153.7,152.9,153.1,152,153.1,151z M34.5,151c-2.9,2.8-4.3,7-4.3,12.6
			c0,4.3,1,7.8,2.9,10.6c0.6,0.8,1.3,1.6,2.3,2.3c1.1,0.8,2,1.2,2.8,1.2c0.2,0,0.4-0.1,0.5-0.2v-0.7c-0.8-0.5-1.4-0.8-1.9-1
			c-1.6-1.1-2.7-2.8-3.1-4.8c-0.1-0.3-0.3-1.8-0.5-4.5c0-0.4,0-1.4,0-2.9c0-3.7,0.3-6.6,0.9-8.6c0.3-0.9,0.8-1.7,1.6-2.7
			c0.8-0.9,1.6-1.5,2.4-1.7c0.2-0.1,0.5-0.2,0.7-0.5v-0.7c-0.3-0.2-0.5-0.2-0.6-0.2C37,149.1,35.8,149.7,34.5,151z M177.2,159.1
			c-0.5-0.4-0.9-0.6-1-0.7h-0.9c-1,0.3-1.8,0.9-2.5,1.8c-0.4,0.5-0.8,1.3-1.3,2.3c-0.4,0.7-0.5,1.2-0.5,1.3v0.3
			c0.5-0.3,0.8-0.6,1-0.9c0.7-0.7,1.4-1,2-1c0.1,0,0.3,0,0.7,0.1c0.4,0.1,0.8,0.3,1.4,0.6c0.6,0.3,0.9,0.6,1,0.8
			c-4.4,0.9-6.8,2.5-7.3,4.9l1.6,11.6l0.2-0.1c0.4-0.5,0.6-1.3,0.9-2.4c0.1-0.4,0.3-1.4,0.5-2.9l-1-6.7c0.2-0.2,0.4-0.4,0.9-0.5
			c0.3-0.1,0.6-0.2,1.1-0.3c0.9-0.2,1.8-0.2,2.7-0.2c0.7,0,1.1,0,1.3,0c0.3,0,0.9,0.2,1.6,0.4c0.7,0.2,1.1,0.3,1.2,0.3h0.3l1.3-3.5
			C180.7,162.1,179,160.3,177.2,159.1z M165.4,166.7c-0.5-0.4-1.1-0.8-1.6-1.2c-0.3,0.1-0.7,0.5-1.3,1.2c-0.7,0.7-1,1.1-1,1.3
			c0,0.2,0.4,0.6,1.2,1.2c0.8,0.7,1.3,1,1.4,1c0.1,0,0.6-0.3,1.3-0.9c0.7-0.6,1.1-1.1,1.1-1.3C166.5,167.7,166.1,167.3,165.4,166.7z
			 M102.6,166.2c-1.1,0.1-1.7,0.2-1.8,0.2c-0.4,0-0.7,0-0.9-0.1c-1.6-0.9-2.9-2.1-3.7-3.6c0.4-0.4,1.1-0.7,2-0.9
			c0.6-0.1,1.3-0.2,2.2-0.2c0.6,0,1.3,0,1.9,0.1c1.5,0.2,2.7,0.8,3.9,1.9v-0.8c0-0.4-0.4-1.3-1.4-2.6c-0.4-0.6-1-1.2-1.9-1.8
			c-0.2-0.1-0.5-0.3-0.9-0.5c-0.4-0.2-0.9-0.3-1.3-0.3c-0.3,0-0.7,0.1-1,0.2c-1.6,0.6-3.4,2.2-5.2,4.6c-0.5,0.7-0.8,1.2-0.9,1.7
			c-0.1,1-0.1,1.7-0.1,2.2h-1.6v-0.1h-6.7v0.1c-0.2,0-0.3-0.1-0.6-0.2c-0.3-0.1-0.5-0.2-0.7-0.3c-0.3-0.1-0.4-0.2-0.4-0.3
			c-0.4-2.4-0.8-6.7-1.4-12.9c-0.1-1.5-0.2-2.6-0.3-3.4c-0.9,0.9-1.6,1.7-2.2,2.4c-0.3,0.4-0.5,0.7-0.5,0.8l1.7,17.6H106l2.3-4.1h-4
			C104.2,166,103.6,166.1,102.6,166.2z M119.6,153c-0.9-1.6-2.1-2.9-3.7-3.9c-0.8-0.5-1.5-0.8-2-0.8c-0.4,0-0.6,0.2-0.6,0.6
			c0-0.1,0,0.1,0.1,0.4c0.9,0.5,1.6,1,2.1,1.2c0.5,0.3,0.9,0.7,1.2,1.1c0.4,0.6,0.8,1.2,1,1.9c0.2,0.4,0.4,1,0.5,1.6
			c0.2,0.9,0.3,1.6,0.3,2.4c0.1,1.1,0.2,2,0.2,2.5c0.1,0.8,0.1,1.7,0.1,2.7c0,3.8-0.3,6.7-1,8.7c-0.4,1.3-1.2,2.4-2.4,3.3
			c-0.4,0.2-0.8,0.4-1.1,0.6c-0.7,0.4-1,0.7-1,0.9c0,0.4,0.2,0.6,0.6,0.6c0.9,0,1.9-0.5,3.1-1.5c1.7-1.4,3-3.5,3.9-6.4
			c0.6-2.1,1-4.2,1-6.4c0-2.1-0.2-3.9-0.6-5.4C120.7,155.4,120.1,153.9,119.6,153z M381.9,152.8c1,0.7,1.5,1,1.7,1
			c-0.1,0,0.1-0.1,0.5-0.2c1.3-0.9,2.2-1.5,2.6-1.9c0.2-0.2,0.4-0.5,0.4-0.7c0-0.2-0.5-0.7-1.6-1.7c-1.1-1-1.7-1.5-1.8-1.5
			c-0.2,0-0.4,0.1-0.7,0.3c-0.6,0.5-1.4,1.2-2.3,2.2c-0.3,0.3-0.4,0.5-0.4,0.7C380.2,151.4,380.8,152,381.9,152.8z M503.7,155.1
			c1.1-1.3,1.7-1.9,1.9-1.9c0.1,0,0.6,0.3,1.5,0.8c1.2,0.7,1.9,1.1,2.2,1.3c0.8-1,1.6-1.9,2.2-2.9l-3.3-1.9c-0.2,0-0.5,0.3-1.1,1
			c-0.5,0.7-1,1-1.3,1c-0.3,0-0.9-0.3-1.7-0.9c-0.5-0.3-1-0.7-1.6-1c-0.6,0.6-1.4,1.5-2.2,2.7l2.9,1.9H503.7z M639.2,152.8
			c1,0.7,1.5,1,1.7,1c-0.1,0,0.1-0.1,0.5-0.2c1.3-0.9,2.2-1.5,2.6-1.9c0.2-0.2,0.4-0.5,0.4-0.7c0-0.2-0.5-0.7-1.6-1.7
			c-1.1-1-1.7-1.5-1.8-1.5c-0.2,0-0.4,0.1-0.7,0.3c-0.6,0.5-1.4,1.2-2.3,2.2c-0.3,0.3-0.4,0.5-0.4,0.7
			C637.6,151.4,638.1,152,639.2,152.8z M508.1,148.3l-2.6-2.2c-1.6,1.6-2.4,2.5-2.5,2.5l2.7,2.1
			C506.6,149.9,507.4,149.1,508.1,148.3z M279.1,150.1c-2-1.8-3.1-2.7-3.2-2.7c-0.2,0-1.2,0.9-3,2.8l3,2.5
			C276.9,152,278,151.2,279.1,150.1z M489.6,151l4.1,2.1c1-0.9,1.9-1.9,2.5-2.9l-3.7-1.9c-1.5,1.4-2.3,2-2.6,2c-0.1,0-0.7-0.3-1.8-1
			c-1.1-0.7-1.7-1-1.8-1c-0.3,0-1.2,0.9-2.7,2.8c1.7,1,2.9,1.7,3.6,2L489.6,151z M251.9,152.2l-3.6-3.2c-0.4,0-1.5,1.1-3.4,3.3
			c2.3,1.8,3.5,2.6,3.4,2.6C248.6,155,249.8,154.1,251.9,152.2z M781.6,152.8c1,0.7,1.5,1,1.7,1c-0.1,0,0.1-0.1,0.5-0.2
			c1.3-0.9,2.2-1.5,2.6-1.9c0.2-0.2,0.4-0.5,0.4-0.7c0-0.2-0.5-0.7-1.6-1.7c-1.1-1-1.7-1.5-1.8-1.5c-0.2,0-0.4,0.1-0.7,0.3
			c-0.6,0.5-1.4,1.2-2.3,2.2c-0.3,0.3-0.4,0.5-0.4,0.7C779.9,151.4,780.5,152,781.6,152.8z M716.4,151.5l3.4,1.8
			c0.9-0.8,1.8-1.7,2.6-2.8l-3.5-1.8c-0.2,0.1-0.6,0.5-1.3,1c-0.5,0.4-0.8,0.7-0.9,0.7c-0.1,0-0.6-0.3-1.5-0.8
			c-0.9-0.6-1.4-0.8-1.5-0.8c-0.3,0-1.2,0.9-2.7,2.7c1.3,0.8,2.5,1.4,3.7,1.9C715.2,152.5,715.8,151.9,716.4,151.5z M214.8,159.7
			c0.1,0,0.3-0.3,0.8-0.8c0.5-0.6,0.9-1,1.1-1.1c1.7,1.2,2.7,1.8,2.9,1.9c0.4-0.4,0.7-0.9,1-1.3c0.4-0.5,0.7-0.9,0.7-1.2l-2.9-1.6
			c-1.5,1-2.2,1.6-2.1,1.6c-0.1,0-0.6-0.3-1.4-0.8c-0.9-0.5-1.3-0.8-1.4-0.8c0,0-0.7,0.7-2,2.2c0.5,0.4,1.1,0.8,1.7,1.1
			C214.1,159.5,214.6,159.7,214.8,159.7z M218.5,154.2l-2.4-1.8c-1.2,0.8-1.9,1.5-2.2,2c1.6,1.1,2.4,1.7,2.4,1.7
			C216.3,156.1,217,155.5,218.5,154.2z M142.5,163.9c0.1,0,0.3,0,0.6-0.1c0.3-0.1,0.5-0.1,0.7-0.2c0.9,0,1.8-0.4,2.5-1.2
			c0.7-0.8,1.1-1.5,1.1-2.3c0-0.4-0.1-0.6-0.3-0.7c-0.7-0.3-1.6-0.4-2.6-0.5c-0.2-0.1-0.2-0.2-0.2-0.3c0.4-0.5,1-1.1,1.7-1.6
			c0.3-0.2,0.5-0.3,0.7-0.4c0.3-0.5,0.6-1.2,0.8-2H147c-1,0.3-1.9,1.1-2.9,2.5c-1,1.4-1.4,2.5-1.3,3.3c0.3,0.3,0.8,0.5,1.6,0.6
			c0.8,0.1,1.3,0.2,1.6,0.4c-1.9,1.2-3.4,2-4.6,2.5H142.5z M755.4,165.2c-1.4,0.1-2.1,0.2-2.2,0.2c-0.6,0-0.9,0-1.1-0.1
			c-2-1.1-3.6-2.7-4.7-4.6c0.6-0.5,1.4-0.9,2.5-1.2c0.8-0.2,1.7-0.2,2.8-0.2c0.8,0,1.6,0.1,2.4,0.2c1.8,0.2,3.5,1.1,4.8,2.5v-1
			c0-0.5-0.5-1.6-1.7-3.3c-0.5-0.8-1.3-1.5-2.3-2.2c-0.2-0.2-0.6-0.4-1.1-0.6c-0.5-0.2-1.1-0.3-1.7-0.3c-0.4,0-0.8,0.1-1.3,0.3
			c-2.1,0.8-4.3,2.7-6.6,5.8c-0.6,0.8-1,1.6-1.1,2.1c-0.1,1.2-0.1,2.1-0.1,2.7h-3c-0.2,0-0.5-0.1-0.9-0.3c-0.4-0.2-0.7-0.3-0.8-0.3
			c-0.3-0.1-0.5-0.2-0.5-0.4c-0.4-3-1-8.4-1.7-16.3c-0.2-1.9-0.3-3.3-0.4-4.3c-1.1,1.1-2,2.1-2.8,3.1c-0.4,0.5-0.7,0.9-0.7,1
			l2.1,22.2h24.6l2.9-5.2h-5C757.4,165,756.7,165.1,755.4,165.2z M675.2,146.6c-0.3-0.4-0.4-1.1-0.4-1.9c-1.1,1.6-2.2,3.5-3.4,5.8
			l1.7,1.4c0.8,3.5,1.3,6.2,1.6,8c0.4,2,0.5,3.3,0.5,4.1c0,0.4-0.1,0.8-0.2,1.5h-13.1c2.4-4.8,3.6-8.6,3.3-11.4
			c-0.2-0.2-0.4-0.2-0.5-0.2c-0.8,0-2.4,0.9-4.7,2.8c-2.1,1.7-3.5,3-4.1,3.9c-1,1.4-1.7,2.6-2.2,3.7c-0.1,0.2-0.2,0.6-0.3,1.2h-6.4
			c-1.6,0-2.4-0.7-2.4-2c0-0.1,0.1-0.5,0.2-1.2c0.1-0.8,0.2-1.2,0.2-1.3v-3.1c-1.8,1.8-2.9,3.1-3.2,3.8c-0.2,0.3-0.2,0.9-0.2,1.8
			c0,0.9-0.1,1.6-0.4,2h-7.6v-0.2h-1.3c-1.1,0-1.7-0.4-2-1.3c-1.3-5-2.3-8.9-2.9-11.7l-2.5,4.8c0.3,1.1,0.6,2.2,1,3.3
			c0.6,2.2,1,3.6,1,4.2c0,0.2-0.1,0.4-0.2,0.6h-10.1c-0.4,0-0.6-0.2-0.8-0.7c-0.2-0.5-0.2-1.6,0-3.2c-0.1-0.2-0.2-0.3-0.3-0.3
			c-0.6,0.8-1.1,1.9-1.3,3.2c-0.4,2.1-0.7,3.7-0.7,4.9c0.2,0.7,0.5,1.1,0.8,1.1h10.9c0.3-0.3,0.7-1,1.1-2c0.4-0.8,0.7-1.3,1.1-1.3
			c0.6,1.5,1,2.6,1.3,3.3h11.6l1.6-2.9c0.6,1.5,1.2,2.4,1.9,2.7c0.4,0.2,0.6,0.2,0.7,0.2h7.3c0.2,2.4,0.9,4.4,2.1,5.9
			c1.2,1.5,2.8,2.3,4.8,2.3c0.7,0,1.4-0.1,2-0.4c1-0.4,1.7-1.1,2.3-1.9c0.2-0.2,0.8-1.3,1.9-3.3c0.8-1.5,1.5-2.3,1.9-2.5h9.5
			c0.1,0,0.3,0,0.5-0.1c0.2-0.1,0.3-0.1,0.4-0.1l1.1-6l-1-8.3c0-0.2,0-0.4,0.1-0.5c1.4-1.9,2.2-2.9,2.3-3c0.6-0.6,0.9-1.2,1.1-1.6
			c-1.1-0.6-2.2-1.3-3.3-2C676.2,147.4,675.3,146.8,675.2,146.6z M658.6,160.7c1.2-1.1,2.5-2,3.7-2.8c0.3,0.4,0.4,0.7,0.4,1
			c0,1.1-0.2,2-0.7,2.6c-0.3,0.4-1,0.8-2,1.3c-1.9,0.8-3.1,1.2-3.7,1.1h-0.5C656.1,163.2,657.1,162.1,658.6,160.7z M662.4,173.7
			h-2.3c-0.5,0-1.3-0.2-2.4-0.7c-0.4-0.2-1.1-0.7-2-1.5c-1-1-1.5-1.6-1.5-2v-0.7h1.6c0.4,0,1.3,0.2,2.7,0.7c0.4,0.1,1.1,0.5,2,1.1
			c1.3,0.8,1.9,1.6,1.9,2.2V173.7z M726.9,155.9l-2.5,4.3c1.4,2.2,2,3.6,2,4.2c0,0.2-0.1,0.4-0.4,0.7h-15.9c-0.5,0-1.2-0.3-2.2-0.8
			c-0.9-0.5-1.5-1-1.7-1.4c-0.2-0.4-0.3-1.1-0.3-1.9c0-0.1,0.1-0.8,0.2-2c0.1-1.2,0.2-2,0.2-2.5l-0.2-0.2c-0.6,0.3-1.2,1.6-1.9,3.7
			c-0.6,2-0.8,3.6-0.8,4.9c0,0.7,0,1.1,0.1,1.2c0.1,0.8,0.7,1.6,1.6,2.4c1,0.8,1.8,1.2,2.5,1.3c0.1,0,0.2,0,0.3,0.1
			c0.1,0.1,0.2,0.1,0.4,0.1h18.5c1.7-3.4,2.6-6.3,2.6-8.6c0-0.8-0.3-1.8-0.8-3C728.1,157.3,727.5,156.4,726.9,155.9z M688.7,148.6
			c-1,1.6-1.5,2.6-1.5,2.9l2.2,18.6c1.6-2.4,2.5-5.4,2.5-9l-1.2-15.5C690.3,146.3,689.6,147.2,688.7,148.6z M575.3,176.5
			c-1.4-0.7-2.5-1.4-3.2-2.1c-1.2,1.3-2.1,2.4-2.6,3.2c0.2,0.2,0.8,0.6,1.8,1.3c1,0.6,1.6,0.9,1.7,0.9c-0.2,0,0.5-0.7,2-2l3.4,2
			c1.2-1.3,2.1-2.4,2.7-3.3l-3.7-2.1C577.2,174.7,576.4,175.4,575.3,176.5z M555.9,148.7c2,1.2,3.2,1.9,3.5,1.9
			c0.1,0,0.5-0.4,1.1-1.1c1-1,1.5-1.6,1.6-1.7l-3.7-2.1c-1.5,1.3-2.2,1.9-2.2,1.9c-0.4,0-1.4-0.6-3.1-1.9c-1.1,1.3-1.9,2.3-2.5,2.9
			c1.8,1.2,2.9,1.9,3.3,1.9C554.2,150.4,554.9,149.8,555.9,148.7z M606.7,160.5c-0.9,1.1-1.4,1.8-1.4,1.9c0,0.1,0.1,0.5,0.2,1.2
			c0.1,0.9,0.2,1.5,0.2,1.8H602v-1.5l1.1-5.1c-0.6,0.6-1.3,1.2-2,1.8c-0.7,0.7-1.2,1.3-1.5,1.8c-0.3,1.3-0.5,2.2-0.5,2.9h-3.5
			c0.1,0,0.2-0.1,0.2-0.3c0.1-0.2,0.1-0.3,0.2-0.3c-0.1,0-0.3,0.1-0.5,0.2c-0.2,0.1-0.4,0.2-0.5,0.2c-0.6,0-1.2-0.3-1.9-1
			c0-0.1,0.4-1.3,1.1-3.5c0.4-1.3,0.6-2.3,0.5-3c-1.9,1.8-3.2,3.3-3.9,4.3c0,0.6-0.1,1.1-0.1,1.7c-0.2,1-0.5,1.6-0.9,1.6l-7.2,0.1
			c-1.9-0.4-2.9-1.2-2.9-2.5c0-0.4,0.1-1,0.2-2c0.2-1,0.2-1.7,0.2-2.3c0-0.5,0-0.9-0.1-1.3c-1.7,1.7-2.7,2.9-3,3.3
			c-0.2,0.9-0.2,1.6-0.1,2.1c-0.2,1.6-0.4,2.5-0.5,2.7h-9.3c-1.1,0-1.7-0.3-1.8-0.8c-1.2-6.2-2-10.9-2.4-14.1
			c-1.7,3-2.6,4.4-2.6,4.3c0,0.1,0.1,0.4,0.2,0.7c0.1,0.3,0.2,0.6,0.3,0.8c-1.2,0.8-2.4,1.6-3.7,2.3c-2,1.2-3.1,2.2-3.4,3
			c-1.2,3.7-1.8,5.4-1.8,5.2v0.7l7.3,1.4c0.7-0.1,1.3-0.7,1.8-1.8c0.5-1.1,1-1.8,1.5-2c0.4,1.7,0.7,2.9,0.8,3.7
			c0.1,0.4,0.4,0.8,1,1.2c0.2,0.2,0.4,0.3,0.6,0.3h10.4l1.7-3c0,0.4,0.3,1,1,1.8c0.7,0.8,1.3,1.2,1.9,1.2h8.1c0.5,0,1.2-0.6,2.2-1.7
			c0.1,0.4,0.3,0.8,0.7,1.1c0.4,0.4,0.7,0.6,1.1,0.6h6.1c0.3,0,0.6-0.2,1-0.6c0.3-0.4,0.5-0.6,0.6-0.6c0,0,0.3,0.3,0.7,1l6.2,0.1
			c0.1,0,0.2,0,0.5-0.1c0,0,0.4-1,1.2-2.7c0.4-0.9,0.5-1.6,0.5-2.2v-7C608.3,158.5,607.6,159.3,606.7,160.5z M562.5,163.5h-2.7
			c-0.4,0-1.7-0.3-3.7-0.9c0.8-0.4,1.6-0.7,2.5-1.1c1.1-0.6,1.8-1.5,2.2-2.5c0.1-0.4,0.4-0.7,0.9-0.8c0.6,2.4,0.8,3.9,0.8,4.5V163.5
			z M890.8,158.1c-1.7-1.4-3.4-2.9-5-4.4c5.4-1.7,8.8-2.9,10.4-3.4c0.6-1.5,1-3.1,1.3-4.7l-14.7,4.5c-1.1,4-1.7,6-1.7,6.1
			c0,0.2,0.7,1.2,2.2,2.8c0.7,0.8,1.3,1.3,1.6,1.6c0-0.1,0.1-0.2,0.3-0.4c0.2-0.2,0.3-0.3,0.3-0.4l6.7,5.8h-12.9
			c-1.1,0-1.7-0.3-1.8-0.8c-1.2-6.2-2-10.9-2.4-14.1c-1.7,3-2.6,4.4-2.6,4.3c0,0.1,0.1,0.4,0.2,0.7c0.1,0.3,0.2,0.6,0.3,0.8
			c-1.2,0.8-2.4,1.6-3.7,2.3c-2,1.2-3.1,2.2-3.4,3c-1.2,3.7-1.8,5.4-1.8,5.2v0.7l7.3,1.4c0.7-0.1,1.3-0.7,1.8-1.8
			c0.5-1.1,1-1.8,1.5-2c0.4,1.7,0.7,2.9,0.8,3.7c0.1,0.4,0.4,0.8,1,1.2c0.2,0.2,0.4,0.3,0.6,0.3h17.6l1.4-5.7c0-0.4-0.1-0.7-0.4-1.1
			C894.5,161.7,892.8,159.9,890.8,158.1z M874.6,163.5h-2.7c-0.4,0-1.7-0.3-3.7-0.9c0.8-0.4,1.6-0.7,2.4-1.1
			c1.1-0.6,1.8-1.5,2.2-2.5c0.1-0.4,0.4-0.7,0.9-0.8c0.6,2.4,0.8,3.9,0.8,4.5V163.5z M942.2,162.3c0-0.1,0.2,0.7,0.5,2.5
			c0.1,0.2,0.1,0.3,0,0.5h-3.9v-1.5l1.1-4.9c-2.1,2.1-3.2,3.3-3.4,3.5c-0.4,1.2-0.6,2.2-0.7,2.9h-3.9c0,0,0-0.1,0.1-0.1
			c0.1-0.2,0.1-0.3,0.2-0.3c-0.1,0-0.3,0.1-0.5,0.2c-0.2,0.1-0.3,0.1-0.4,0.2h-0.6c-0.5-0.1-1-0.4-1.5-1c0-0.1,0.4-1.3,1.1-3.5
			c0.4-1.3,0.6-2.3,0.5-3c-1.9,1.8-3.2,3.3-3.9,4.3c0,0.6-0.1,1.1-0.1,1.7c-0.2,1-0.5,1.6-0.9,1.6l-5.9,0.1v-0.1h-1.3
			c-2.3-0.9-4.7-2.9-7.1-6.1l-2.6,4.3c2,2.2,3,3.8,3,4.6c0,1.2-1.4,2.9-4.1,5.2c-2.7,2.2-4.9,3.4-6.5,3.4c-0.6,0-1.6-0.2-2.7-0.7
			c-1.2-0.5-1.8-0.7-1.9-0.7c-0.2,0-0.3,0.1-0.4,0.2v0.4c0.5,0.6,2,1.4,4.3,2.5c2.4,1.1,4.1,1.6,5.2,1.6c2,0,3.9-1.5,5.9-4.5
			c1.6-2.4,2.5-4.4,2.8-6.1c0.5,0.6,0.9,0.9,1.3,0.9h8.3c0.5,0,1.2-0.6,2.2-1.7c0.1,0.4,0.3,0.8,0.7,1.1c0.4,0.4,0.8,0.6,1.1,0.6
			h6.6c0.3,0,0.5-0.1,0.6-0.2c0.5-0.4,0.8-0.7,1.1-0.9c0.3,0.5,0.5,0.9,0.5,1.1h6.7c0.7-1.6,1.2-2.9,1.5-3.8
			c0.1-0.4,0.2-0.8,0.2-1.1v-7.2C943.4,160.6,942.2,161.9,942.2,162.3z M868.1,148.7c2,1.2,3.2,1.9,3.5,1.9c0.1,0,0.5-0.4,1.1-1.1
			c1-1,1.5-1.6,1.6-1.7l-3.7-2.1c-1.5,1.3-2.2,1.9-2.2,1.9c-0.4,0-1.4-0.6-3.1-1.9c-1.1,1.3-1.9,2.3-2.5,2.9
			c1.8,1.2,2.9,1.9,3.3,1.9C866.3,150.4,867,149.8,868.1,148.7z M848.2,148.6c-1,1.6-1.5,2.6-1.5,2.9l2.2,18.6
			c1.6-2.4,2.5-5.4,2.5-9l-1.2-15.5C849.8,146.3,849.1,147.2,848.2,148.6z M834.7,146.6c-0.3-0.4-0.4-1.1-0.4-1.9
			c-1.1,1.6-2.2,3.5-3.4,5.8l1.7,1.4c0.8,3.5,1.3,6.2,1.6,8c0.4,2,0.5,3.3,0.5,4.1c0,0.4-0.1,0.8-0.2,1.5h-8.6
			c0.2-0.5,0.5-1.2,1-2.2c0.4-0.9,0.7-1.3,0.7-1.4c0-1.3-0.9-2.6-2.8-4.1c-1.7-1.3-3.1-2-4.1-2c-1.4,0-4.3,1.4-8.8,4.2
			c-5.2,3.2-8.3,5-9.5,5.5h-0.1c0.1,0,0.2-0.1,0.2-0.3c0.1-0.2,0.1-0.3,0.2-0.3c-0.1,0-0.3,0.1-0.5,0.2c-0.2,0.1-0.4,0.2-0.5,0.2
			c-0.6,0-1.2-0.3-1.9-1c0-0.1,0.4-1.3,1.1-3.5c0.4-1.3,0.6-2.3,0.5-3c-1.9,1.8-3.2,3.3-3.9,4.3c0,0.6-0.1,1.1-0.1,1.7
			c-0.2,1-0.5,1.6-0.9,1.6l-7.1,0.1c-1.5,0-2.3-0.7-2.3-2c0-0.1,0.1-0.5,0.2-1.2c0.1-0.8,0.2-1.2,0.2-1.3v-3.1
			c-1.8,1.8-2.9,3.1-3.2,3.8c-0.2,0.3-0.2,0.9-0.2,1.8c0,0.9-0.1,1.6-0.4,2h-8.9c-0.2,0-0.5-0.1-0.9-0.3c-0.4-0.2-0.7-0.3-0.8-0.3
			c-0.3-0.1-0.5-0.2-0.5-0.4c-0.4-3-1-8.4-1.7-16.3c-0.2-1.9-0.3-3.3-0.4-4.3c-1.1,1.1-2,2.1-2.8,3.1c-0.4,0.5-0.7,0.9-0.7,1
			l2.1,22.2h13.7l1.6-2.9c0.6,1.5,1.2,2.4,1.9,2.7c0.4,0.2,0.6,0.2,0.7,0.2h7.8c0.5,0,1.2-0.6,2.2-1.7c0.1,0.4,0.3,0.8,0.7,1.1
			c0.4,0.4,0.7,0.6,1.1,0.6H836c0.1,0,0.3,0,0.4-0.1c0.2-0.1,0.3-0.1,0.4-0.1l1.1-6l-1-8.3c0-0.2,0-0.4,0.1-0.5
			c1.4-1.9,2.2-2.9,2.3-3c0.6-0.6,0.9-1.2,1.1-1.6c-1.1-0.6-2.2-1.3-3.3-2C835.7,147.4,834.8,146.8,834.7,146.6z M822.4,164.8
			c-0.5,0.2-0.8,0.3-0.9,0.3h-12c0.4-0.2,2-1.2,4.8-2.9c1.6-1,2.9-1.5,4-1.5c0.6,0,1.6,0.4,2.9,1.2c1.3,0.8,1.9,1.5,1.9,2.2
			C823.1,164.4,822.9,164.6,822.4,164.8z M221.1,165.9c0.1,0.1,0.1,0.3,0,0.4H218v-1.2l0.9-3.9c-1.7,1.7-2.6,2.6-2.7,2.8
			c-0.3,1-0.5,1.7-0.5,2.3h-3.8c0-0.1-0.1-0.1-0.1-0.2c-0.7-0.5-1.3-1.3-1.8-2.3c-0.4-0.9-0.8-1.7-1.2-2.6c-0.4,0.6-1,1.5-1.8,2.7
			c-0.4,0.7-0.7,1.1-0.7,1.2c1.6,3.2,2.4,5.3,2.4,6.2c0,0.6-1.1,1.3-3.2,1.9c-1.9,0.6-3.3,0.9-4.3,0.9c-1.4,0-2.5-0.3-3.5-0.8
			c-1.3-0.8-2-1.9-2-3.4c0-0.6,0.6-2.4,1.7-5.3v-0.7H197c-0.7,0.4-1.4,1.7-2.2,4c-0.8,2.3-1.2,4.1-1.2,5.6c0,3.1,2.2,4.6,6.7,4.6
			c1.7,0,3.5-0.4,5.3-1.3c1.4-0.7,2.3-1.2,2.8-1.6c1-0.9,1.8-2.6,2.4-5h4.3c0.2,0,0.4-0.1,0.5-0.2c0.4-0.3,0.7-0.6,0.9-0.8
			c0.3,0.4,0.4,0.7,0.4,0.9h5.3c0.5-1.3,0.9-2.3,1.2-3c0.1-0.3,0.1-0.6,0.1-0.9v-5.7c-1.8,1.9-2.8,3-2.8,3.3
			C220.7,163.8,220.8,164.4,221.1,165.9z M398.6,176.5c-1.1-0.9-1.6-1.4-1.8-1.4c-0.3,0-0.8,0.4-1.6,1.3c-0.8,0.9-1.2,1.4-1.3,1.7
			c2,1.6,3.1,2.3,3.5,2.3c0.2,0,0.7-0.3,1.5-0.9c0.8-0.6,1.3-1.1,1.3-1.4C400.2,178,399.7,177.4,398.6,176.5z M332.8,148.6
			c-1,1.6-1.5,2.6-1.5,2.9l2.2,18.6c1.6-2.4,2.5-5.4,2.5-9l-1.2-15.5C334.3,146.3,333.6,147.2,332.8,148.6z M355.2,161.6
			c-2-0.3-3.1-0.8-3.1-1.4c0-0.5,0.4-0.9,1.1-1.3c0.6-0.3,1.3-0.5,1.9-0.5c0.4,0,0.9,0.2,1.7,0.7c0.5,0.3,1,0.6,1.6,0.9
			c1.2-1.8,1.9-2.8,1.9-3.1c0-0.7-0.3-1.3-1-1.7c-0.6-0.4-1.3-0.7-2-0.7c-2.2,0-4.2,0.9-5.9,2.8c-1.8,1.9-2.6,3.9-2.6,6
			c0,0.8,0.6,1.3,1.9,1.7c0.9,0.2,1.7,0.3,2.6,0.5c-0.8,0.4-1.7,1-2.5,1.9c-1,1-1.4,1.9-1.4,2.7c3.5-2.1,5.4-3.1,5.7-3.3
			c1.1-0.5,2.4-0.8,3.9-1c0.8-0.1,1.5-0.2,1.9-0.2c1.1-1.3,1.9-2.5,2.4-3.6h-4C357.9,161.9,356.5,161.8,355.2,161.6z M189.4,166.7
			c-0.5-0.4-1.1-0.8-1.6-1.2c-0.3,0.1-0.7,0.5-1.3,1.2c-0.7,0.7-1,1.1-1,1.3c0,0.2,0.4,0.6,1.2,1.2c0.8,0.7,1.3,1,1.4,1
			c0.1,0,0.6-0.3,1.3-0.9c0.7-0.6,1.1-1.1,1.1-1.3C190.5,167.7,190.2,167.3,189.4,166.7z M319.2,146.6c-0.3-0.4-0.4-1.1-0.4-1.9
			c-1.1,1.6-2.2,3.5-3.4,5.8l1.7,1.4c0.8,3.5,1.3,6.2,1.6,8c0.4,2,0.5,3.3,0.5,4.1c0,0.4-0.1,0.8-0.2,1.5h-7.9
			c-0.8,0-1.2-0.2-1.4-0.6c0.4-1.6,0.6-2.5,0.6-2.9v-3.8c-0.4,0.4-0.8,0.7-1,1c-1.4,1.9-2.1,3-2.1,3.3c0,0.1,0.1,0.5,0.3,1.2
			c0.2,0.7,0.3,1.1,0.3,1.2c0,0.3,0,0.6-0.1,0.7h-4.4V164l1.3-5.2c-2.2,1.9-3.4,3.2-3.7,4c-0.1,1.1-0.1,2,0,2.6h-4.9
			c0.1,0,0.2-0.1,0.2-0.3c0.1-0.2,0.1-0.3,0.2-0.3c-0.1,0-0.3,0.1-0.5,0.2c-0.2,0.1-0.4,0.2-0.5,0.2c-0.6,0-1.2-0.3-1.9-1
			c0-0.1,0.4-1.3,1.1-3.5c0.4-1.3,0.6-2.3,0.5-3c-1.9,1.8-3.2,3.3-3.9,4.3c0,0.6-0.1,1.1-0.1,1.7c-0.2,1-0.5,1.6-0.9,1.6l-7.7,0.1
			H281c0.8-1.5,1.5-2.6,1.9-3.3c0.1-0.2,0.1-0.7,0.1-1.3c0-1.1-0.2-2.1-0.6-3.1c-0.5-1.2-1.3-1.8-2.2-1.8c-1.4,0-3.2,0.9-5.5,2.7
			c-1.8,1.4-3.3,3-4.6,4.6c-0.2,0.9-0.3,1.6-0.3,2.2H264c-0.1,0-0.3-0.1-0.6-0.3c-0.3-0.2-0.4-0.4-0.4-0.4c-0.8-0.5-1.6-1.4-2.5-2.9
			c-0.7-1.1-1.4-2.3-2-3.5c-2.2,3-3.3,4.7-3.3,5c0,0.1,0.2,0.5,0.6,1.1c0.5,0.8,0.8,1.3,1,1.6c0.5,1.1,0.9,2.3,1.2,3.6
			c0.3,1.3,0.5,2.2,0.5,2.8c0,1-1.5,1.9-4.6,2.6c-2.2,0.5-3.9,0.8-5,0.8c-1.8,0-3.5-0.5-5-1.4c-2-1.2-3.1-2.9-3.1-5.1
			c0-0.9,0.3-2.1,1-3.7c0.6-1.5,1-2.4,1-2.6c0-0.2-0.1-0.3-0.2-0.3h-0.6c-1.1,0.9-2,2.7-2.8,5.2c-0.7,2.3-1.1,4.4-1.1,6.2
			c0,4.8,3.1,7.2,9.3,7.2c2.2,0,4.6-0.5,7.3-1.4c1.6-0.5,2.7-1.1,3.4-1.8c0.7-0.7,1.2-1.5,1.7-2.6c0.2-0.5,0.6-1.4,1-2.6
			c0.4-1.3,0.6-2.2,0.7-2.8h27.2c0.5,0,1.2-0.6,2.2-1.7c0.1,0.4,0.3,0.8,0.7,1.1c0.4,0.4,0.7,0.6,1.1,0.6h7.5
			c0.5-0.5,0.8-0.9,1.1-1.1c0.4,0.5,0.6,0.9,0.7,1.1h6.5c0.1-0.4,0.3-0.9,0.5-1.5c0.5,0.7,0.8,1.2,1.1,1.5h10.5c0.1,0,0.3,0,0.5-0.1
			c0.2-0.1,0.3-0.1,0.4-0.1l1.1-6l-1-8.3c0-0.2,0-0.4,0.1-0.5c1.4-1.9,2.2-2.9,2.3-3c0.6-0.6,0.9-1.2,1.1-1.6
			c-1.1-0.6-2.2-1.3-3.3-2C320.2,147.4,319.4,146.8,319.2,146.6z M278.9,164.8c-0.9,0.4-1.7,0.6-2.4,0.6c-0.5,0-1.2-0.2-2.1-0.7
			c-1.1-0.5-1.6-1.1-1.6-1.8c0-0.5,0.6-1,1.9-1.6c1-0.5,1.8-0.7,2.2-0.7c0.4,0,0.8,0.1,1.3,0.4c0.4,0.3,0.9,0.9,1.3,1.8
			c0.1,0.2,0.2,0.7,0.2,1.4C279.3,164.5,279.1,164.6,278.9,164.8z M398.1,159.6c1.5,2.2,2.5,4.1,3,5.8c0,0-3.8,0-11.3,0
			c-1.6,0-2.4-0.7-2.4-2c0-0.1,0.1-0.5,0.2-1.2c0.1-0.8,0.2-1.2,0.2-1.3v-3.1c-1.8,1.8-2.9,3.1-3.2,3.8c-0.2,0.3-0.2,0.9-0.2,1.8
			c0,0.9-0.1,1.6-0.4,2h-8.9c-0.2,0-0.5-0.1-0.9-0.3c-0.4-0.2-0.7-0.3-0.8-0.3c-0.3-0.1-0.5-0.2-0.5-0.4c-0.4-3-1-8.4-1.7-16.3
			c-0.2-1.9-0.3-3.3-0.4-4.3c-1.1,1.1-2,2.1-2.8,3.1c-0.4,0.5-0.7,0.9-0.7,1l2.1,22.2h13.7l1.6-2.9c0.6,1.5,1.2,2.4,1.9,2.7
			c0.4,0.2,0.6,0.2,0.7,0.2h15.5c0.6-3.8,0.8-6.2,0.8-7.2c0-2.4-1.1-4.8-3.2-7.4L398.1,159.6z M471.4,176.5
			c-1.4-0.7-2.5-1.4-3.2-2.1c-1.2,1.3-2.1,2.4-2.6,3.2c0.2,0.2,0.8,0.6,1.8,1.3c1,0.6,1.6,0.9,1.7,0.9c-0.2,0,0.5-0.7,2-2l3.4,2
			c1.2-1.3,2.1-2.4,2.7-3.3l-3.7-2.1C473.2,174.7,472.5,175.4,471.4,176.5z M534.9,148.6c-1,1.6-1.5,2.6-1.5,2.9l2.2,18.6
			c1.6-2.4,2.5-5.4,2.5-9l-1.2-15.5C536.5,146.3,535.8,147.2,534.9,148.6z M521.4,146.6c-0.3-0.4-0.4-1.1-0.4-1.9
			c-1.1,1.6-2.2,3.5-3.4,5.8l1.7,1.4c0.8,3.5,1.3,6.2,1.6,8c0.4,2,0.5,3.3,0.5,4.1c0,0.4-0.1,0.8-0.2,1.5h-6.8
			c-2.5,0-3.7-0.7-3.7-2.1c0-0.1,0.1-0.5,0.2-1.2c0.1-0.7,0.2-1.2,0.2-1.3v-3.2c-2,2.1-3,3.4-3.2,3.9c-0.2,0.5-0.2,1.1-0.2,2
			c0,0.9-0.1,1.5-0.3,1.9h-11.7c0.1-0.2,0.6-1.1,1.5-2.5c0.4-0.6,0.5-1.3,0.5-2.1c0-1.1-0.2-2.1-0.6-3.1c-0.5-1.2-1.3-1.8-2.2-1.8
			c-1.4,0-3.3,0.9-5.6,2.8c-1.9,1.5-3.4,3.1-4.5,4.6c-0.2,0.9-0.3,1.7-0.3,2.2h-6c-2-0.4-2.9-1.2-2.9-2.6c0-0.4,0.1-1,0.2-2
			c0.2-1,0.2-1.7,0.2-2.3c0-0.5,0-0.9-0.1-1.3c-1.7,1.7-2.7,2.9-3,3.3c-0.2,0.9-0.2,1.6-0.1,2.1c-0.2,1.6-0.4,2.5-0.5,2.7h-8.6
			c-1,0-1.5-0.5-1.6-1.4c-0.6-6.4-1-11.2-1.3-14.4c-0.2-1.6-0.3-3-0.5-4l-3.7,5.1l2.2,14.8h-8.4c-1.1,0-1.7-0.3-1.8-0.8
			c-1.2-6.2-2-10.9-2.4-14.1c-1.7,3-2.6,4.4-2.6,4.3c0,0.1,0.1,0.4,0.2,0.7c0.1,0.3,0.2,0.6,0.3,0.8c-1.2,0.8-2.4,1.6-3.7,2.3
			c-2,1.2-3.1,2.2-3.4,3c-1.2,3.7-1.8,5.4-1.8,5.2v0.7l7.3,1.4c0.7-0.1,1.3-0.7,1.8-1.8c0.5-1.1,1-1.8,1.5-2
			c0.4,1.7,0.7,2.9,0.8,3.7c0.1,0.4,0.4,0.8,1,1.2c0.2,0.2,0.4,0.3,0.6,0.3h8.9c1-1.2,1.6-2.1,2-2.7c0.1,0.2,0.2,0.7,0.4,1.4
			c0.1,0.7,0.3,1.1,0.6,1.3h11l1.7-3c0,0.4,0.3,1,1,1.8c0.7,0.8,1.3,1.2,1.9,1.2h30.6c0.6-1.1,1.1-2.1,1.6-2.8c0.2,0.7,0.5,1.4,1,2
			c0.5,0.6,1.1,0.9,1.6,0.9h11.8c0.1,0,0.3,0,0.5-0.1c0.2-0.1,0.3-0.1,0.4-0.1l1.1-6l-1-8.3c0-0.2,0-0.4,0.1-0.5
			c1.4-1.9,2.2-2.9,2.3-3c0.6-0.6,0.9-1.2,1.1-1.6c-1.1-0.6-2.2-1.3-3.3-2C522.4,147.4,521.5,146.8,521.4,146.6z M445.9,163.5h-2.7
			c-0.4,0-1.7-0.3-3.7-0.9c0.8-0.4,1.6-0.7,2.5-1.1c1.1-0.6,1.8-1.5,2.2-2.5c0.1-0.4,0.4-0.7,0.9-0.8c0.6,2.4,0.8,3.9,0.8,4.5V163.5
			z M491.5,165.4c-0.4,0-1.1-0.2-2-0.6c-1.2-0.5-1.7-1.1-1.7-1.8c0-0.5,0.6-1.1,1.9-1.7c1-0.5,1.8-0.7,2.2-0.7
			c0.7,0,1.4,0.4,1.9,1.2c0.6,0.8,0.8,1.7,0.7,2.5C493.6,165,492.6,165.4,491.5,165.4z M439.4,148.7c2,1.2,3.2,1.9,3.5,1.9
			c0.1,0,0.5-0.4,1.1-1.1c1-1,1.5-1.6,1.6-1.7l-3.7-2.1c-1.5,1.3-2.2,1.9-2.2,1.9c-0.4,0-1.4-0.6-3.1-1.9c-1.1,1.3-1.9,2.3-2.5,2.9
			c1.8,1.2,2.9,1.9,3.3,1.9C437.7,150.4,438.3,149.8,439.4,148.7z M424.3,161c-0.3-0.8-0.7-1.6-1.3-2.5c-0.9-1.2-1.7-1.9-2.5-1.9
			c-1.2,0-2.6,1.1-4.1,3.4c-1.3,1.9-2,3.3-2.1,4.2v1.4c0,1.4,0.2,2.5,0.5,3.1c0.5,0.8,1.5,1.3,2.9,1.3c1.2,0,2.2-0.3,3-0.9
			c0.7-0.6,1.4-1.7,1.9-3.3h0.1c0.2,0.5,0.3,1.1,0.3,1.6c0,2.1-1.7,4.4-5,6.9c-3,2.3-5.4,3.5-7,3.5c-0.1,0-0.9-0.1-2.3-0.4
			c-1.4-0.3-2.2-0.4-2.3-0.4c-0.6,0-0.8,0.2-0.8,0.7c0.5,0.4,2.1,1,4.6,1.7c2.6,0.7,4.5,1,5.7,1c2.7,0,5-1.9,6.9-5.6
			c1.6-3.2,2.4-6.4,2.4-9.6c0-0.9-0.1-1.9-0.4-2.9C424.6,161.8,424.4,161.3,424.3,161z M419,165.2c-0.4,0-0.9-0.1-1.6-0.3
			c-0.9-0.3-1.4-0.6-1.4-1c0-0.6,0.4-1.1,1.2-1.5c0.7-0.3,1.2-0.5,1.6-0.5c0.6,0,1.1,0.2,1.6,0.6c0.6,0.5,0.8,1.2,0.8,2.1
			C420.4,165,419.7,165.2,419,165.2z"/>
	</g>
	<g>
		<polygon class="st0" points="1023.3,203.3 1023.3,230.1 1016.4,230.1 1016.4,219.3 1002.7,219.3 1002.7,230.1 995.9,230.1 
			995.9,203.3 1002.7,203.3 1002.7,214.1 1016.4,214.1 1016.4,203.3 		"/>
		<polygon class="st0" points="1052.8,225.2 1052.8,230.1 1032.5,230.1 1032.5,203.3 1052.5,203.3 1052.5,208.2 1039.4,208.2 
			1039.4,213.8 1051.9,213.8 1051.9,218.7 1039.4,218.7 1039.4,225.2 		"/>
		<rect x="1061.3" y="203.3" class="st0" width="6.9" height="26.9"/>
		<path class="st0" d="M1096.1,205v5.2c-3.7-1.6-6.6-2.4-8.7-2.4c-1.2,0-2.2,0.2-2.9,0.6c-0.7,0.4-1.1,0.9-1.1,1.6
			c0,0.5,0.3,1,0.8,1.5c0.5,0.5,1.8,1.1,3.8,1.8c2,0.7,3.7,1.4,4.9,2c1.2,0.6,2.3,1.5,3.1,2.6c0.9,1.1,1.3,2.6,1.3,4.3
			c0,2.5-1,4.5-2.9,5.9c-1.9,1.5-4.5,2.2-7.6,2.2c-3.4,0-6.7-0.9-9.9-2.6v-5.8c1.8,1.2,3.5,2.1,4.9,2.6c1.4,0.6,2.9,0.8,4.5,0.8
			c2.7,0,4-0.8,4-2.5c0-0.6-0.3-1.1-0.8-1.6c-0.5-0.5-1.8-1.1-3.9-1.8c-2.1-0.7-3.7-1.4-4.9-2c-1.2-0.6-2.2-1.5-3.1-2.6
			c-0.9-1.1-1.3-2.6-1.3-4.4c0-2.3,1-4.2,2.9-5.6c1.9-1.4,4.5-2.1,7.6-2.1C1089.8,202.9,1092.9,203.6,1096.1,205"/>
		<path class="st0" d="M1130.5,221.9v5.9c-3.4,1.8-7,2.7-10.8,2.7c-4.9,0-8.8-1.3-11.7-3.9c-2.9-2.6-4.3-5.9-4.3-9.7
			c0-3.9,1.5-7.1,4.6-9.8c3.1-2.7,7-4,12-4c3.9,0,7.2,0.8,10,2.4v6c-3.3-1.8-6.5-2.7-9.5-2.7c-2.9,0-5.3,0.8-7.2,2.3
			c-1.9,1.5-2.8,3.5-2.8,5.9c0,2.4,0.9,4.4,2.8,5.9c1.8,1.6,4.2,2.3,7,2.3c1.4,0,2.8-0.2,4.1-0.6
			C1125.9,224,1127.9,223.2,1130.5,221.9"/>
		<path class="st0" d="M1153.5,202.9c4.7,0,8.5,1.4,11.4,4.1c2.9,2.8,4.4,6,4.4,9.6c0,3.7-1.5,6.9-4.4,9.7
			c-2.9,2.7-6.7,4.1-11.3,4.1c-4.6,0-8.5-1.4-11.4-4.1c-2.9-2.7-4.4-5.9-4.4-9.7c0-3.7,1.5-6.9,4.4-9.6
			C1145,204.3,1148.8,202.9,1153.5,202.9 M1153.5,224.9c2.6,0,4.7-0.8,6.3-2.3c1.6-1.5,2.4-3.5,2.4-5.9c0-2.5-0.8-4.4-2.4-5.9
			c-1.6-1.5-3.7-2.2-6.3-2.2c-2.6,0-4.7,0.8-6.3,2.2c-1.6,1.5-2.4,3.5-2.4,5.9c0,2.4,0.8,4.4,2.4,5.9
			C1148.8,224.1,1150.9,224.9,1153.5,224.9"/>
		<g>
			<g>
				<rect x="998.5" y="13.1" class="st1" width="167.8" height="173.4"/>
				<polygon class="st2" points="1132.7,66.7 1132.7,121.7 1082.3,76.6 1082.3,20.1 				"/>
				<polygon class="st3" points="1031.9,66.7 1031.9,121.7 1082.3,76.6 1082.3,20.1 				"/>
				<polygon class="st4" points="1082.3,81.9 1082.3,81.9 1082.3,81.9 998.2,156.2 998.2,186.6 1166.4,186.6 1166.4,156.2 				"/>
				<polygon class="st0" points="1082.3,81.9 1082.3,186.6 1166.4,186.6 1166.4,156.2 				"/>
				<path class="st4" d="M994.8,189.1V9.5H1170v177.8v1.8H994.8z M998.5,185.5h167.8V13.1H998.5V185.5z"/>
			</g>
		</g>
	</g>
</g>
</svg>
